<?xml version="1.0" encoding="UTF-8"?> <svg xmlns="http://www.w3.org/2000/svg" id="Layer_1" version="1.1" viewBox="0 0 88.706 38.075"><defs><style> .st0 { fill: #bb128f; } .st1 { fill: none; stroke: #8a8c8e; stroke-miterlimit: 10; } </style></defs><g><path d="M6.66,22.645c.126,2.826,1.507,4.113,3.987,4.113,1.79,0,3.234-1.099,3.517-2.104h3.924c-1.256,3.831-3.924,5.463-7.598,5.463-5.117,0-8.288-3.516-8.288-8.54,0-4.866,3.359-8.571,8.288-8.571,5.526,0,8.194,4.647,7.88,9.638H6.66ZM13.912,19.819c-.408-2.26-1.381-3.453-3.548-3.453-2.826,0-3.642,2.198-3.705,3.453h7.253Z"></path><path d="M37.198,27.135c-1.727,2.229-3.987,3.077-6.153,3.077-6.938,0-11.02-5.18-11.02-11.648,0-6.656,4.082-11.836,11.02-11.836,4.584,0,8.916,2.826,9.45,7.912h-4.71c-.565-2.481-2.417-3.768-4.741-3.768-4.427,0-6.091,3.768-6.091,7.692,0,3.736,1.664,7.504,6.091,7.504,3.202,0,5.055-1.727,5.337-4.835h-4.96v-3.673h9.419v12.119h-3.14l-.502-2.543h0Z"></path><path class="st0" d="M43.2,18.438c.251-4.176,3.987-5.432,7.629-5.432,3.234,0,7.127.722,7.127,4.615v8.445c0,1.476.157,2.951.565,3.611h-4.521c-.157-.502-.282-1.036-.314-1.57-1.413,1.476-3.485,2.009-5.463,2.009-3.077,0-5.526-1.539-5.526-4.867,0-3.673,2.763-4.552,5.526-4.929,2.731-.408,5.275-.314,5.275-2.135,0-1.915-1.319-2.198-2.889-2.198-1.695,0-2.794.691-2.951,2.449h-4.458v.002ZM53.498,21.734c-.753.659-2.324.691-3.705.942-1.382.282-2.637.753-2.637,2.386,0,1.664,1.287,2.072,2.732,2.072,3.485,0,3.611-2.763,3.611-3.736v-1.664h0Z"></path><path class="st0" d="M60.567,13.446h4.458v16.232h-4.458V13.446Z"></path><path d="M67.509,13.446h4.239v2.26h.094c1.13-1.821,3.264-2.7,5.148-2.7,4.741,0,6.307,2.669,6.307,6.687v9.984h-4.458v-8.794c0-2.669-.972-3.987-3.044-3.987-2.417,0-3.827,1.35-3.827,4.647v8.135h-4.458V13.446h0Z"></path><circle class="st0" cx="62.796" cy="9.357" r="2.324"></circle></g><line class="st1" x1="95.314" y1="5.898" x2="95.314" y2="31.017"></line><g><path d="M114.803,10.335l7.593,19.36h-1.979l-2.359-6.02h-8.812l-2.331,6.02h-1.979l7.809-19.36h2.061s-.003,0-.003,0ZM109.813,22.103h7.62l-3.742-9.924s-3.878,9.924-3.878,9.924Z"></path><path d="M125.565,10.487v19.208h-1.708V10.487h1.708Z"></path><path d="M144.437,10.335l7.593,19.36h-1.979l-2.359-6.02h-8.812l-2.331,6.02h-1.979l7.809-19.36h2.061-.003ZM139.447,22.103h7.62l-3.742-9.924-3.878,9.924h0Z"></path><path d="M163.523,18.117h.055v-2.413h1.708v12.906c0,4.42-1.952,6.671-6.183,6.671-3.118,0-5.64-1.491-5.829-4.23h1.708c.298,1.763,1.816,2.793,4.094,2.793,3.2,0,4.502-1.897,4.502-5.233v-1.952h-.055c-.813,1.817-2.521,2.874-4.447,2.874-4.202,0-6.317-2.847-6.317-7.185,0-4.041,2.44-7.05,6.317-7.05,1.979,0,3.742,1.193,4.447,2.82h0ZM159.076,28.095c2.793,0,4.502-2.521,4.502-5.559,0-2.848-1.302-5.803-4.528-5.803-2.901,0-4.583,2.468-4.583,5.803,0,2.847,1.465,5.559,4.609,5.559Z"></path><path d="M180.306,22.753v.406h-10.765c.027,2.739,1.491,5.505,4.609,5.505,2.278,0,3.797-1.221,4.393-3.579h1.709c-.787,3.416-2.793,5.016-6.102,5.016-4.202,0-6.317-3.118-6.317-7.402,0-3.823,1.979-7.402,6.317-7.402,3.932,0,6.155,3.118,6.155,7.457h.001ZM178.598,21.723c-.081-2.63-1.735-4.989-4.474-4.989-2.44,0-4.203,1.952-4.583,4.989h9.057,0Z"></path><path d="M193.943,20.612v9.083h-1.708v-8.758c0-2.739-1.085-4.203-3.553-4.203-3.01,0-4.393,2.44-4.393,4.935v8.026h-1.708v-13.991h1.708v2.413h.055c.65-1.681,2.468-2.82,4.501-2.82,3.579,0,5.098,1.735,5.098,5.315h0Z"></path><path d="M199.881,11.501v4.203h2.847v1.437h-2.847v9.544c0,1.22.352,1.735,1.572,1.735.298,0,.786-.027,1.274-.081v1.464c-.65.027-.977.055-1.519.055-2.251,0-3.037-.76-3.037-3.037v-9.68h-2.44v-1.437h2.44v-4.203h1.71,0Z"></path></g></svg> 